<svg width="168" height="28" viewBox="0 0 168 28" fill="none" xmlns="http://www.w3.org/2000/svg">
<path opacity="0.8" d="M12.3 26.91L5.63 12.06L4.26 8.86002V26.91H0V2.02002H5.75L12.55 16.97L13.75 19.88V2.02002H18.02V26.91H12.31H12.3Z" fill="#F2662C"/>
<path opacity="0.8" d="M12.31 26.53L6.63 11.27L5.47 7.99001L4.79 18.29L4.28 26L0.0400009 25.72L1.67 0.890015L7.41 1.27001L13.21 16.63L14.22 19.62L14.94 8.66001L15.39 1.80001L19.65 2.08001L18.02 26.92L12.32 26.54L12.31 26.53Z" fill="#F2662C"/>
<path d="M39.72 17.08C39.72 18.6 39.5 20 39.07 21.26C38.64 22.52 38.02 23.61 37.2 24.51C36.38 25.41 35.39 26.11 34.21 26.6C33.03 27.09 31.68 27.34 30.17 27.34C28.66 27.34 27.45 27.13 26.32 26.71C25.19 26.29 24.23 25.67 23.44 24.83C22.65 24 22.05 22.96 21.63 21.71C21.21 20.46 21 19 21 17.34C21 15.8 21.22 14.41 21.66 13.15C22.1 11.89 22.73 10.82 23.54 9.93001C24.36 9.04001 25.36 8.35 26.54 7.86C27.72 7.37 29.05 7.13 30.54 7.13C32.03 7.13 33.28 7.34 34.41 7.77C35.54 8.2 36.5 8.83 37.29 9.67C38.08 10.51 38.68 11.55 39.09 12.78C39.5 14.02 39.71 15.45 39.71 17.07L39.72 17.08ZM34.88 17.19C34.88 15.18 34.5 13.68 33.75 12.67C32.99 11.66 31.88 11.16 30.41 11.16C29.6 11.16 28.91 11.32 28.33 11.64C27.75 11.96 27.29 12.39 26.92 12.94C26.55 13.49 26.28 14.14 26.11 14.87C25.94 15.61 25.85 16.39 25.85 17.23C25.85 19.25 26.26 20.77 27.07 21.79C27.88 22.81 28.99 23.32 30.4 23.32C31.17 23.32 31.85 23.16 32.42 22.85C32.99 22.54 33.45 22.11 33.81 21.56C34.17 21.01 34.43 20.36 34.61 19.61C34.79 18.86 34.88 18.05 34.88 17.19Z" fill="white"/>
<path d="M59.7 26.72C58.86 26.91 58.02 27.06 57.17 27.18C56.32 27.3 55.51 27.35 54.75 27.35C53.48 27.35 52.39 27.22 51.47 26.95C50.55 26.68 49.79 26.28 49.18 25.73C48.58 25.18 48.13 24.49 47.85 23.65C47.56 22.81 47.42 21.8 47.42 20.63V11.18H42.22V7.56H47.42V2.61L52.18 1.37V7.56H59.7V11.18H52.18V20.28C52.18 21.38 52.43 22.22 52.94 22.78C53.45 23.35 54.3 23.63 55.49 23.63C56.25 23.63 56.99 23.57 57.72 23.44C58.45 23.31 59.1 23.17 59.7 23V26.71V26.72Z" fill="white"/>
<path d="M82.04 15.75C82.04 16.07 82.04 16.48 82.01 16.99C81.99 17.5 81.96 17.97 81.92 18.42H69.2C69.2 19.27 69.33 20.02 69.59 20.67C69.85 21.32 70.22 21.86 70.69 22.3C71.17 22.74 71.74 23.07 72.4 23.3C73.07 23.53 73.81 23.64 74.62 23.64C75.56 23.64 76.57 23.57 77.64 23.42C78.71 23.27 79.83 23.04 80.98 22.71V26.4C80.48 26.54 79.95 26.67 79.36 26.78C78.77 26.89 78.18 27 77.57 27.08C76.96 27.16 76.34 27.24 75.72 27.28C75.1 27.32 74.49 27.35 73.91 27.35C72.44 27.35 71.12 27.14 69.95 26.72C68.78 26.3 67.79 25.68 66.98 24.86C66.17 24.04 65.55 23.03 65.11 21.82C64.67 20.61 64.46 19.22 64.46 17.63C64.46 16.04 64.68 14.62 65.11 13.34C65.54 12.05 66.15 10.95 66.94 10.03C67.73 9.10999 68.68 8.39999 69.81 7.89999C70.93 7.39999 72.19 7.14999 73.57 7.14999C74.95 7.14999 76.15 7.35999 77.21 7.78999C78.26 8.21999 79.15 8.80999 79.86 9.56999C80.57 10.33 81.11 11.24 81.48 12.29C81.85 13.34 82.03 14.5 82.03 15.76L82.04 15.75ZM77.32 15.08C77.33 14.32 77.24 13.66 77.03 13.09C76.82 12.52 76.55 12.06 76.2 11.69C75.85 11.32 75.44 11.05 74.98 10.87C74.52 10.69 74.02 10.6 73.49 10.6C72.32 10.6 71.36 10.99 70.61 11.77C69.86 12.55 69.42 13.65 69.28 15.07H77.32V15.08Z" fill="white"/>
<path d="M98.76 26.91L98.65 24.38C98.24 24.81 97.82 25.21 97.37 25.57C96.93 25.93 96.44 26.25 95.9 26.51C95.36 26.77 94.79 26.98 94.16 27.13C93.53 27.28 92.84 27.35 92.09 27.35C91.1 27.35 90.23 27.2 89.48 26.91C88.73 26.62 88.1 26.21 87.59 25.69C87.08 25.17 86.7 24.54 86.44 23.8C86.18 23.06 86.05 22.25 86.05 21.36C86.05 20.47 86.24 19.6 86.63 18.83C87.02 18.06 87.61 17.39 88.4 16.83C89.19 16.27 90.18 15.83 91.37 15.52C92.56 15.2 93.95 15.04 95.55 15.04H98.08V13.88C98.08 13.38 98.01 12.94 97.87 12.54C97.73 12.14 97.5 11.8 97.19 11.52C96.88 11.24 96.48 11.02 95.98 10.87C95.48 10.72 94.88 10.64 94.15 10.64C93.01 10.64 91.88 10.77 90.77 11.03C89.66 11.29 88.58 11.65 87.54 12.12V8.41001C88.47 8.04001 89.54 7.74001 90.75 7.50001C91.96 7.26001 93.22 7.14001 94.53 7.14001C95.96 7.14001 97.2 7.28001 98.22 7.55001C99.25 7.82001 100.1 8.23001 100.76 8.78001C101.43 9.33001 101.92 10.01 102.24 10.83C102.56 11.65 102.72 12.6 102.72 13.7V26.92H98.74L98.76 26.91ZM98.09 18.36H95.25C94.46 18.36 93.8 18.44 93.25 18.59C92.7 18.74 92.26 18.95 91.92 19.22C91.58 19.49 91.33 19.79 91.17 20.14C91.01 20.49 90.93 20.86 90.93 21.25C90.93 22.04 91.18 22.64 91.69 23.05C92.2 23.46 92.89 23.67 93.77 23.67C94.42 23.67 95.09 23.44 95.79 22.97C96.49 22.5 97.26 21.83 98.09 20.95V18.36Z" fill="white"/>
<path d="M125.47 16.89C125.47 18.67 125.22 20.2 124.72 21.5C124.22 22.79 123.52 23.87 122.63 24.73C121.74 25.59 120.68 26.22 119.46 26.63C118.24 27.04 116.91 27.25 115.48 27.25C114.05 27.25 112.76 27.15 111.55 26.94C110.34 26.73 109.18 26.45 108.07 26.09V0H112.72V6.32L112.53 10.13C113.23 9.23 114.04 8.51 114.98 7.96C115.91 7.41 117.03 7.14 118.34 7.14C119.48 7.14 120.5 7.37 121.39 7.83C122.28 8.29 123.02 8.94 123.63 9.78C124.23 10.62 124.69 11.65 125.01 12.85C125.33 14.05 125.49 15.4 125.49 16.9L125.47 16.89ZM120.59 17.08C120.59 16.01 120.51 15.11 120.36 14.36C120.21 13.61 119.99 13 119.7 12.51C119.41 12.03 119.06 11.68 118.65 11.45C118.24 11.22 117.76 11.12 117.23 11.12C116.44 11.12 115.69 11.44 114.97 12.07C114.25 12.7 113.49 13.57 112.69 14.66V23.12C113.06 23.26 113.51 23.37 114.05 23.46C114.59 23.55 115.14 23.59 115.7 23.59C116.44 23.59 117.11 23.44 117.71 23.13C118.31 22.83 118.83 22.39 119.25 21.84C119.67 21.29 120 20.6 120.23 19.79C120.46 18.98 120.57 18.08 120.57 17.08H120.59Z" fill="white"/>
<path d="M135.76 3.62H130.3V0H140.53V23.29H146.11V26.91H129.64V23.29H135.77V3.62H135.76Z" fill="white"/>
<path d="M167.81 15.75C167.81 16.07 167.81 16.48 167.78 16.99C167.76 17.5 167.73 17.97 167.69 18.42H154.97C154.97 19.27 155.1 20.02 155.36 20.67C155.62 21.32 155.99 21.86 156.46 22.3C156.94 22.74 157.51 23.07 158.17 23.3C158.84 23.53 159.58 23.64 160.39 23.64C161.33 23.64 162.34 23.57 163.41 23.42C164.48 23.27 165.6 23.04 166.75 22.71V26.4C166.25 26.54 165.71 26.67 165.13 26.78C164.55 26.89 163.95 27 163.34 27.08C162.73 27.16 162.11 27.24 161.49 27.28C160.87 27.32 160.26 27.35 159.68 27.35C158.21 27.35 156.89 27.14 155.72 26.72C154.55 26.3 153.56 25.68 152.75 24.86C151.94 24.04 151.32 23.03 150.88 21.82C150.44 20.61 150.23 19.22 150.23 17.63C150.23 16.04 150.45 14.62 150.88 13.34C151.31 12.05 151.92 10.95 152.71 10.03C153.5 9.10999 154.45 8.39999 155.58 7.89999C156.7 7.39999 157.96 7.14999 159.34 7.14999C160.72 7.14999 161.92 7.35999 162.98 7.78999C164.03 8.21999 164.92 8.80999 165.63 9.56999C166.34 10.33 166.88 11.24 167.25 12.29C167.62 13.34 167.8 14.5 167.8 15.76L167.81 15.75ZM163.09 15.08C163.1 14.32 163.01 13.66 162.8 13.09C162.6 12.53 162.32 12.06 161.97 11.69C161.62 11.32 161.22 11.05 160.75 10.87C160.29 10.69 159.79 10.6 159.25 10.6C158.08 10.6 157.12 10.99 156.37 11.77C155.62 12.55 155.18 13.65 155.04 15.07H163.08L163.09 15.08Z" fill="white"/>
</svg>
