<?xml version="1.0" encoding="UTF-8"?>
<svg id="Layer_2" data-name="Layer 2" xmlns="http://www.w3.org/2000/svg" xmlns:xlink="http://www.w3.org/1999/xlink" viewBox="0 0 1440 531.03">
  <defs>
    <style>
      .cls-1 {
        fill: url(#linear-gradient-3);
      }

      .cls-1, .cls-2, .cls-3, .cls-4 {
        fill-rule: evenodd;
        stroke-width: 0px;
      }

      .cls-2 {
        fill: url(#linear-gradient);
      }

      .cls-3 {
        fill: url(#linear-gradient-2);
      }

      .cls-4 {
        fill: rgba(255, 0, 0, .71);
      }
    </style>
    <linearGradient id="linear-gradient" x1="719.59" y1="532.77" x2="720.5" y2="155.47" gradientUnits="userSpaceOnUse">
      <stop offset="0" stop-color="#ff6200" stop-opacity=".3"/>
      <stop offset="1" stop-color="#ff4d01"/>
    </linearGradient>
    <linearGradient id="linear-gradient-2" x1="719.5" y1="532.77" x2="720.61" y2="74.32" xlink:href="#linear-gradient"/>
    <linearGradient id="linear-gradient-3" x1="719.37" y1="532.77" x2="720.75" y2="-37.65" xlink:href="#linear-gradient"/>
  </defs>
  <g id="Layer_1-2" data-name="Layer 1">
    <path class="cls-4" d="m1440,384.72v146.31H0v-226.29c81.37-26.96,173.15-18.08,257.21,3.51,42.44,10.89,85.82,26.5,129.39,42.19,53.76,19.35,107.81,38.81,160.79,49.65,98.71,20.25,201.67,19.07,300.54-.46,32.71-6.45,64.97-14.88,97.23-23.31,36.19-9.46,72.37-18.91,109.17-25.57,129.33-23.16,262.71-11.41,385.67,33.97Z"/>
    <path class="cls-2" d="m1440,276.6v254.43H0V196.62c81.37-26.96,173.15-18.08,257.21,3.51,42.44,10.89,85.82,26.51,129.39,42.19,53.76,19.35,107.81,38.81,160.79,49.65,98.71,20.25,201.67,19.07,300.54-.45,32.71-6.46,64.97-14.89,97.23-23.32,36.19-9.46,72.37-18.91,109.17-25.57,129.33-23.16,262.71-11.41,385.67,33.97Z"/>
    <path class="cls-3" d="m1440,201.01v330.02H0V121.04c81.37-26.97,173.15-18.08,257.21,3.5,42.44,10.89,85.82,26.51,129.39,42.19,53.76,19.35,107.81,38.81,160.79,49.65,98.71,20.26,201.67,19.08,300.54-.45,32.71-6.46,64.97-14.89,97.23-23.32,36.19-9.45,72.37-18.91,109.17-25.57,129.33-23.15,262.71-11.4,385.67,33.97Z"/>
    <path class="cls-1" d="m1440,96.72v434.31H0V16.74C81.37-10.22,173.15-1.33,257.21,20.25c42.44,10.89,85.82,26.51,129.39,42.19,53.76,19.35,107.81,38.81,160.79,49.65,98.71,20.25,201.67,19.07,300.54-.45,32.71-6.46,64.97-14.89,97.23-23.32,36.19-9.45,72.37-18.91,109.17-25.57,129.33-23.16,262.71-11.41,385.67,33.97Z"/>
  </g>
</svg>